<?xml version="1.0" encoding="UTF-8"?>
<svg id="Layer_1" xmlns="http://www.w3.org/2000/svg" version="1.1" viewBox="0 0 1000.6292135 266.0121941">
  <!-- Generator: Adobe Illustrator 30.0.0, SVG Export Plug-In . SVG Version: 2.1.1 Build 123)  -->
  <defs>
    <style>
      .st0 {
        fill: #10131b;
      }
    </style>
  </defs>
  <path class="st0" d="M298.8660113,228.2726869c0,12.2052524,3.3049852,27.051916,11.5513421,30.3504587v1.9778372h-92.694205v-1.9778372c8.2463569-3.2985427,11.5448996-16.8245007,11.5448996-30.3504587v-91.3734994c0-25.4026446-9.2384967-33.9775672-19.1341249-33.9775672-5.9399539,0-11.5448996,1.6492714-16.827722,5.9367327v119.414334c0,12.2052524,3.3049852,27.051916,11.5513421,30.3504587v1.9778372h-93.0292133v-1.9778372c8.2463569-3.2985427,11.5448996-16.8245007,11.5448996-30.3504587v-91.3734994c0-25.4026446-9.2320542-33.9775672-19.1276824-33.9775672-5.6113881,0-11.5448996,1.9778372-16.827722,5.9367327v119.414334c0,12.2052524,3.2985427,27.051916,11.5448996,30.3504587v1.9778372H5.9399539v-1.9778372c8.2463569-3.2985427,11.5448996-16.8245007,11.5448996-30.3504587v-86.4256853c0-15.5037951-5.2763799-25.0708576-17.4848535-34.9664858v-1.9810584c15.1784506-3.9588955,59.051646-17.4816323,82.470011-24.0787178h1.9778372l.663574,26.0597762c13.5227367-18.1452063,33.9775672-28.7011873,57.0673664-28.7011873,30.3504587,0,44.8653353,15.5037951,50.1417152,26.7201289,13.5227367-16.8212795,33.3139932-26.7201289,55.7466608-26.7201289,42.5524899,0,50.7988467,38.2650285,50.7988467,71.91403v78.1793285ZM915.4748422,0v228.2726869c0,12.2052524,3.2985427,27.051916,11.5448996,30.3504587v1.9778372h-78.8429025l-2.3064029-29.0297531c-11.8799078,19.1341249-28.7011873,31.3393773-53.7688237,31.3393773-35.9554044,0-64.6565917-22.7612334-64.6565917-86.4289065,0-57.0673664,37.9332415-97.9705849,81.4778712-97.9705849,16.1641479,0,26.3883419,2.6381899,36.6189784,11.5448996v-29.0297531c0-15.1720081-5.2828224-25.0708576-17.8134193-34.6346988v-2.3096242c15.5005739-3.9588955,62.6723121-17.4848535,86.0971195-24.081939h1.6492714ZM845.5418706,220.8754416v-123.0353731c-3.9621168-3.2985427-7.5892253-4.9478141-13.2006134-4.9478141-22.7612334,0-30.3440162,24.5442424-30.3440162,75.3430891,0,51.4624207,8.2463569,64.1849977,24.081939,64.1849977,7.254217,0,14.1798683-4.2874613,19.4626907-11.5448996ZM931.0591682,231.2426639c0-18.8023379,15.5005739-34.306133,34.6346988-34.306133,18.8055591,0,34.306133,15.5037951,34.306133,34.306133,0,19.1309037-15.5005739,34.6346988-34.306133,34.6346988-19.1341249,0-34.6346988-16.4927137-34.6346988-34.6346988ZM519.7073133,170.2164019c0-46.5146066,39.2539471-92.0370735,95.664182-92.0370735,59.3802118,0,95.3356162,42.5557111,95.3356162,92.3656392,0,47.1717382-38.5968156,92.3656392-95.3356162,92.3656392-60.0373434,0-95.664182-42.2239241-95.664182-92.694205ZM636.4834574,170.2215706c-.3285658-64.9444758-5.6049457-86.3727918-21.111962-86.3727918-15.1720081,0-21.111962,21.428316-21.4405278,86.3727918-.3285658,65.2647274,5.9335115,87.0228073,21.4405278,87.0228073,15.8355821,0,21.4405278-21.7580799,21.111962-87.0228073ZM317.0150946,170.2164019c0-46.5146066,39.2539471-92.0370735,95.664182-92.0370735,59.3802118,0,95.3356162,42.5557111,95.3356162,92.3656392,0,47.1717382-38.5968156,92.3656392-95.3356162,92.3656392-60.0373434,0-95.664182-42.2239241-95.664182-92.694205ZM433.7912386,170.2215706c-.3285658-64.9444758-5.6049457-86.3727918-21.111962-86.3727918-15.1720081,0-21.111962,21.428316-21.4405278,86.3727918-.3285658,65.2647274,5.9335115,87.0228073,21.4405278,87.0228073,15.8355821,0,21.4405278-21.7580799,21.111962-87.0228073Z"/>
</svg>