<?xml version="1.0" encoding="UTF-8"?>
<svg id="Layer_1" xmlns="http://www.w3.org/2000/svg" version="1.1" viewBox="0 0 547.3014287 266.0121941">
  <!-- Generator: Adobe Illustrator 30.0.0, SVG Export Plug-In . SVG Version: 2.1.1 Build 123)  -->
  <defs>
    <style>
      .st0 {
        fill: #10131b;
      }
    </style>
  </defs>
  <path class="st0" d="M423.4285601,212.7344941c0,17.2922054,4.6824499,38.3267196,16.3657557,43.000042v2.8021679h-131.3276595v-2.8021679c11.6833058-4.6733223,16.3566281-23.8366821,16.3566281-43.000042V83.277989c0-35.9900585-13.0889536-48.138871-27.1089205-48.138871-8.4156312,0-16.3566281,2.3366612-23.8412459,8.4110674v169.1843086c0,17.2922054,4.6824499,38.3267196,16.3657557,43.000042v2.8021679h-131.8022938v-2.8021679c11.6833058-4.6733223,16.3566281-23.8366821,16.3566281-43.000042V83.277989c0-35.9900585-13.079826-48.138871-27.0997929-48.138871-7.9501245,0-16.3566281,2.8021679-23.8412459,8.4110674v169.1843086c0,17.2922054,4.6733223,38.3267196,16.3566281,43.000042v2.8021679H8.4156312v-2.8021679c11.6833058-4.6733223,16.3566281-23.8366821,16.3566281-43.000042v-122.4465215c0-21.9655277-7.4754902-35.519988-24.7722594-49.5399549v-2.8067317C21.5045848,32.3323864,83.6634228,13.1735903,116.8421858,3.8269457h2.8021679l.940141,36.9210719C139.7432907,15.040181,168.7233657.0846368,201.436622.0846368c43.000042,0,63.5644857,21.9655277,71.0399759,37.8566491C291.6353939,14.1091676,319.6753279.0846368,351.4575707.0846368c60.2876835,0,71.9709894,54.2132773,71.9709894,101.8866416v110.7632157ZM449.7118033,216.9423097c0-26.63885,21.9609639-48.6043777,49.0698844-48.6043777,26.6434138,0,48.6043777,21.9655277,48.6043777,48.6043777,0,27.1043567-21.9609639,49.0698844-48.6043777,49.0698844-27.1089205,0-49.0698844-23.3666116-49.0698844-49.0698844Z"/>
</svg>