<?xml version="1.0" encoding="UTF-8"?>
<svg id="Layer_1" xmlns="http://www.w3.org/2000/svg" version="1.1" viewBox="0 0 520.6292135 520.1348315">
  <!-- Generator: Adobe Illustrator 30.0.0, SVG Export Plug-In . SVG Version: 2.1.1 Build 123)  -->
  <defs>
    <style>
      .st0 {
        fill: #10131b;
      }

      .st1 {
        fill: #e2497c;
      }
    </style>
  </defs>
  <rect class="st0" width="520" height="520"/>
  <path class="st1" d="M349.4470974,307.9043395c0,9.8651391,2.6713203,21.8652516,9.3366031,24.5313647v1.5986264h-74.9219435v-1.5986264c6.6652827-2.6661131,9.3313958-13.5987389,9.3313958-24.5313647v-73.8544568c0-20.5321951-7.4671995-27.4630477-15.4655388-27.4630477-4.8010865,0-9.3313958,1.3330565-13.6013425,4.7984828v96.5190217c0,9.8651391,2.6713203,21.8652516,9.3366031,24.5313647v1.5986264h-75.1927206v-1.5986264c6.6652827-2.6661131,9.3313958-13.5987389,9.3313958-24.5313647v-73.8544568c0-20.5321951-7.4619923-27.4630477-15.4603315-27.4630477-4.5355166,0-9.3313958,1.5986264-13.6013425,4.7984828v96.5190217c0,9.8651391,2.6661131,21.8652516,9.3313958,24.5313647v1.5986264h-75.1875134v-1.5986264c6.6652827-2.6661131,9.3313958-13.5987389,9.3313958-24.5313647v-69.8552872c0-12.5312522-4.2647395-20.2640216-14.1324823-28.2623609v-1.60123c12.268286-3.1998564,47.7296729-14.1298786,66.6580344-19.4621048h1.5986264l.536347,21.0633348c10.9300222-14.6662256,27.4630477-23.1983082,46.1258393-23.1983082,24.5313647,0,36.2633038,12.5312522,40.5280432,21.5970782,10.9300222-13.5961353,26.9267007-21.5970782,45.0583526-21.5970782,34.3939002,0,41.059183,30.928474,41.059183,58.1259518v63.1900045ZM364.4415903,310.3048827c0-15.1973653,12.5286486-27.7286175,27.9941874-27.7286175,15.1999689,0,27.7286175,12.5312522,27.7286175,27.7286175,0,15.4629352-12.5286486,27.9941874-27.7286175,27.9941874-15.4655388,0-27.9941874-13.3305654-27.9941874-27.9941874Z"/>
</svg>